<?xml version="1.0" standalone="no"?><!DOCTYPE svg PUBLIC "-//W3C//DTD SVG 1.1//EN" "http://www.w3.org/Graphics/SVG/1.1/DTD/svg11.dtd"><svg t="1698573995165" class="icon" viewBox="0 0 1024 1024" version="1.1" xmlns="http://www.w3.org/2000/svg" p-id="870" xmlns:xlink="http://www.w3.org/1999/xlink" width="200" height="200"><path d="M514.404848 507.190303a180.906667 180.906667 0 1 1 180.906667-180.906667 181.061818 181.061818 0 0 1-180.906667 180.906667z m0-317.362424a136.455758 136.455758 0 1 0 136.378182 136.455757 136.610909 136.610909 0 0 0-136.378182-136.455757z m290.831516 688.795151H218.763636a32.659394 32.659394 0 0 1-31.418181-41.50303l74.24-263.757576a32.73697 32.73697 0 0 1 31.418181-23.815757h437.992728a32.73697 32.73697 0 0 1 31.030303 23.815757l74.24 263.757576a32.659394 32.659394 0 0 1-31.030303 41.50303z m-570.802425-44.450909h555.132122l-67.490909-239.864242H301.924848l-67.490909 239.864242z" p-id="871"></path><path d="M506.104242 758.690909a22.186667 22.186667 0 0 1-22.10909-22.419394l0.698181-105.425454a22.186667 22.186667 0 0 1 22.186667-22.109091 22.186667 22.186667 0 0 1 22.109091 22.419394L528.290909 736.969697a22.186667 22.186667 0 0 1-22.186667 22.109091z" p-id="872"></path></svg>